<svg width="17" height="17" viewBox="0 0 17 17" fill="none" xmlns="http://www.w3.org/2000/svg">
<path d="M13.83 12.7372C13.5282 12.4354 13.0389 12.4354 12.7372 12.7372C12.4354 13.039 12.4354 13.5282 12.7372 13.83L13.83 12.7372ZM15.6808 16.7737C15.9826 17.0754 16.4718 17.0754 16.7736 16.7737C17.0754 16.4719 17.0754 15.9826 16.7736 15.6809L15.6808 16.7737ZM12.7372 13.83L15.6808 16.7737L16.7736 15.6809L13.83 12.7372L12.7372 13.83ZM7.39609 13.2467C4.16487 13.2467 1.54545 10.6273 1.54545 7.39609H0C0 11.4808 3.31134 14.7922 7.39609 14.7922V13.2467ZM13.2467 7.39609C13.2467 10.6273 10.6273 13.2467 7.39609 13.2467V14.7922C11.4808 14.7922 14.7922 11.4808 14.7922 7.39609H13.2467ZM7.39609 1.54545C10.6273 1.54545 13.2467 4.16487 13.2467 7.39609H14.7922C14.7922 3.31134 11.4808 0 7.39609 0V1.54545ZM7.39609 0C3.31134 0 0 3.31134 0 7.39609H1.54545C1.54545 4.16487 4.16487 1.54545 7.39609 1.54545V0Z" fill="#6A737C"/>
</svg>
