<svg width="14" height="11" viewBox="0 0 14 11" fill="none" xmlns="http://www.w3.org/2000/svg">
<path d="M3 10.5C3 10.7761 3.22386 11 3.5 11C3.77614 11 4 10.7761 4 10.5L3 10.5ZM4 0.899999C4 0.623857 3.77614 0.399999 3.5 0.399999C3.22386 0.399999 3 0.623857 3 0.9L4 0.899999ZM0.144872 2.94803C-0.0495166 3.14416 -0.0481042 3.46074 0.148027 3.65513C0.344159 3.84952 0.660738 3.8481 0.855127 3.65197L0.144872 2.94803ZM1.54838 2.24222L1.90351 2.59419L1.54838 2.24222ZM5.45161 2.24222L5.80674 1.89025L5.45161 2.24222ZM6.14487 3.65197C6.33926 3.8481 6.65584 3.84952 6.85197 3.65513C7.0481 3.46074 7.04952 3.14416 6.85513 2.94803L6.14487 3.65197ZM3.312 0.911934L3.24878 0.415946L3.24878 0.415946L3.312 0.911934ZM3.688 0.911934L3.75122 0.415946L3.75122 0.415946L3.688 0.911934ZM4 10.5L4 0.899999L3 0.9L3 10.5L4 10.5ZM0.855127 3.65197L1.90351 2.59419L1.19326 1.89025L0.144872 2.94803L0.855127 3.65197ZM5.09649 2.59419L6.14487 3.65197L6.85513 2.94803L5.80674 1.89025L5.09649 2.59419ZM1.90351 2.59419C2.32982 2.16406 2.62035 1.87201 2.86573 1.67494C3.10323 1.48421 3.24947 1.42395 3.37522 1.40792L3.24878 0.415946C2.86501 0.464862 2.54748 0.647963 2.23957 0.895248C1.93954 1.1362 1.60301 1.47682 1.19326 1.89025L1.90351 2.59419ZM5.80674 1.89025C5.39699 1.47682 5.06046 1.1362 4.76043 0.895248C4.45252 0.647963 4.13499 0.464862 3.75122 0.415946L3.62478 1.40792C3.75053 1.42395 3.89677 1.48421 4.13427 1.67494C4.37965 1.87201 4.67018 2.16406 5.09649 2.59419L5.80674 1.89025ZM3.37522 1.40792C3.45808 1.39736 3.54192 1.39736 3.62478 1.40792L3.75122 0.415946C3.58441 0.394684 3.41559 0.394684 3.24878 0.415946L3.37522 1.40792Z" fill="#078669"/>
<path d="M10.75 0.5C10.75 0.223857 10.5261 -1.19064e-07 10.25 -1.31134e-07C9.97386 -1.13402e-07 9.75 0.223858 9.75 0.5L10.75 0.5ZM9.75 10.1C9.75 10.3761 9.97386 10.6 10.25 10.6C10.5261 10.6 10.75 10.3761 10.75 10.1L9.75 10.1ZM13.6051 8.05197C13.7995 7.85584 13.7981 7.53926 13.602 7.34487C13.4058 7.15048 13.0893 7.1519 12.8949 7.34803L13.6051 8.05197ZM12.2016 8.75778L11.8465 8.40581L12.2016 8.75778ZM8.29838 8.75778L7.94326 9.10975L8.29838 8.75778ZM7.60513 7.34803C7.41074 7.1519 7.09416 7.15048 6.89803 7.34487C6.7019 7.53926 6.70048 7.85584 6.89487 8.05197L7.60513 7.34803ZM10.438 10.0881L10.5012 10.5841L10.5012 10.5841L10.438 10.0881ZM10.062 10.0881L9.99878 10.5841L9.99878 10.5841L10.062 10.0881ZM9.75 0.5L9.75 10.1L10.75 10.1L10.75 0.5L9.75 0.5ZM12.8949 7.34803L11.8465 8.40581L12.5567 9.10975L13.6051 8.05197L12.8949 7.34803ZM8.65351 8.40581L7.60513 7.34803L6.89487 8.05197L7.94326 9.10975L8.65351 8.40581ZM11.8465 8.40581C11.4202 8.83594 11.1297 9.12799 10.8843 9.32506C10.6468 9.51579 10.5005 9.57605 10.3748 9.59208L10.5012 10.5841C10.885 10.5351 11.2025 10.352 11.5104 10.1048C11.8105 9.8638 12.147 9.52318 12.5567 9.10975L11.8465 8.40581ZM7.94326 9.10975C8.35301 9.52318 8.68954 9.8638 8.98957 10.1048C9.29748 10.352 9.61501 10.5351 9.99878 10.5841L10.1252 9.59208C9.99947 9.57605 9.85323 9.51579 9.61573 9.32506C9.37035 9.12799 9.07982 8.83594 8.65351 8.40581L7.94326 9.10975ZM10.3748 9.59208C10.2919 9.60264 10.2081 9.60264 10.1252 9.59208L9.99878 10.5841C10.1656 10.6053 10.3344 10.6053 10.5012 10.5841L10.3748 9.59208Z" fill="#078669"/>
</svg>
