<svg width="18" height="20" viewBox="0 0 18 20" fill="none" xmlns="http://www.w3.org/2000/svg">
<path d="M8.95846 2.08331C8.61328 2.08331 8.33346 2.36314 8.33346 2.70831C8.33346 3.05349 8.61328 3.33332 8.95846 3.33332V2.08331ZM17.2918 3.33332C17.637 3.33332 17.9168 3.05349 17.9168 2.70832C17.9168 2.36314 17.637 2.08331 17.2918 2.08331V3.33332ZM8.95846 16.6667C8.61328 16.6667 8.33346 16.9465 8.33346 17.2917C8.33346 17.6369 8.61328 17.9167 8.95846 17.9167V16.6667ZM17.2918 17.9167C17.637 17.9167 17.9168 17.6369 17.9168 17.2917C17.9168 16.9465 17.637 16.6667 17.2918 16.6667V17.9167ZM8.95846 10.625C9.30364 10.625 9.58346 10.3452 9.58346 10C9.58346 9.65482 9.30364 9.375 8.95846 9.375V10.625ZM0.625103 9.375C0.279925 9.375 0.000101763 9.65482 0.000101701 10C0.000101639 10.3452 0.279924 10.625 0.625103 10.625L0.625103 9.375ZM8.95846 3.33332L17.2918 3.33332V2.08331L8.95846 2.08331V3.33332ZM8.95846 17.9167H17.2918V16.6667H8.95846V17.9167ZM8.95846 9.375L0.625103 9.375L0.625103 10.625L8.95846 10.625V9.375ZM0.000101701 2.70831C0.000101701 4.20409 1.21267 5.41665 2.70844 5.41665V4.16665C1.90302 4.16665 1.2501 3.51373 1.2501 2.70831H0.000101701ZM2.70844 5.41665C4.20422 5.41665 5.41678 4.20409 5.41678 2.70831H4.16678C4.16678 3.51373 3.51386 4.16665 2.70844 4.16665V5.41665ZM5.41678 2.70831C5.41678 1.21254 4.20422 -2.54562e-05 2.70844 -2.54562e-05V1.24998C3.51386 1.24998 4.16678 1.9029 4.16678 2.70831H5.41678ZM2.70844 -2.54562e-05C1.21267 -2.54562e-05 0.000101701 1.21254 0.000101701 2.70831H1.2501C1.2501 1.9029 1.90302 1.24998 2.70844 1.24998V-2.54562e-05ZM0.000101701 17.2917C0.000101701 18.7875 1.21267 20 2.70844 20V18.75C1.90302 18.75 1.2501 18.0971 1.2501 17.2917H0.000101701ZM2.70844 20C4.20422 20 5.41678 18.7875 5.41678 17.2917H4.16678C4.16678 18.0971 3.51386 18.75 2.70844 18.75V20ZM5.41678 17.2917C5.41678 15.7959 4.20422 14.5833 2.70844 14.5833V15.8333C3.51386 15.8333 4.16678 16.4863 4.16678 17.2917H5.41678ZM2.70844 14.5833C1.21267 14.5833 0.000101701 15.7959 0.000101701 17.2917H1.2501C1.2501 16.4863 1.90302 15.8333 2.70844 15.8333V14.5833ZM17.9168 10C17.9168 8.50423 16.7042 7.29166 15.2085 7.29166V8.54166C16.0139 8.54166 16.6668 9.19458 16.6668 10H17.9168ZM15.2085 7.29166C13.7127 7.29166 12.5001 8.50423 12.5001 10H13.7501C13.7501 9.19458 14.4031 8.54166 15.2085 8.54166V7.29166ZM12.5001 10C12.5001 11.4958 13.7127 12.7083 15.2085 12.7083V11.4583C14.4031 11.4583 13.7501 10.8054 13.7501 10H12.5001ZM15.2085 12.7083C16.7042 12.7083 17.9168 11.4958 17.9168 10H16.6668C16.6668 10.8054 16.0139 11.4583 15.2085 11.4583V12.7083Z" fill="#6A737C"/>
</svg>
