<svg width="67" height="32" viewBox="0 0 67 32" fill="none" xmlns="http://www.w3.org/2000/svg">
<path d="M10.925 20.6194C12.9202 20.6194 14.4098 20.2457 15.3522 19.5089C16.2846 18.7797 16.9286 17.5164 17.2661 15.7541C17.5808 14.1069 17.4609 12.9567 16.9099 12.3361C16.3465 11.7021 15.1283 11.3806 13.2894 11.3806H10.1008L8.33309 20.6194H10.925ZM0.495987 32C0.347979 32 0.207408 31.9328 0.113312 31.8166C0.019044 31.7005 -0.0191527 31.5477 0.00912405 31.4L4.69385 6.9169C4.73917 6.68022 4.94341 6.50922 5.18088 6.50922H15.2777C18.4509 6.50922 20.8128 7.38439 22.2973 9.11071C23.7898 10.8461 24.2507 13.2719 23.6671 16.3205C23.4296 17.5626 23.0212 18.7161 22.4531 19.7488C21.8844 20.7827 21.1328 21.7394 20.2187 22.5927C19.1246 23.6328 17.8863 24.387 16.5415 24.8308C15.218 25.2688 13.5182 25.4908 11.4896 25.4908H7.40121L6.23366 31.5922C6.18834 31.829 5.98427 32 5.7468 32H0.495987Z" fill="white"/>
<path d="M36.1175 25.4908C35.9712 25.4908 35.8326 25.4236 35.7397 25.3074C35.6465 25.1913 35.6088 25.0386 35.6367 24.8908L37.6825 14.058C37.8771 13.0278 37.8291 12.2883 37.5475 11.9759C37.3751 11.7849 36.8572 11.4646 35.3261 11.4646H31.6198L29.0477 25.0829C29.003 25.3198 28.8014 25.4908 28.567 25.4908H23.4244C23.2781 25.4908 23.1395 25.4236 23.0465 25.3074C22.9534 25.1913 22.9157 25.0384 22.9436 24.8908L27.5683 0.407685C27.6131 0.171004 27.8147 0 28.0491 0H33.1916C33.3379 0 33.4765 0.0671927 33.5696 0.183266C33.6626 0.299506 33.7004 0.452199 33.6724 0.600021L32.5564 6.50918H36.5434C39.5808 6.50918 41.6404 7.06016 42.84 8.19368C44.0628 9.35004 44.4444 11.199 43.9742 13.6898L41.8225 25.0829C41.7777 25.3198 41.5763 25.4908 41.3417 25.4908H36.1175Z" fill="white"/>
<path d="M53.4403 20.6194C55.5121 20.6194 57.0588 20.2457 58.0374 19.5089C59.0056 18.7799 59.6743 17.5165 60.0249 15.7541C60.3517 14.1069 60.2272 12.9567 59.6549 12.3361C59.0698 11.7021 57.8049 11.3806 55.8954 11.3806H52.5845L50.749 20.6194H53.4403ZM42.6113 32C42.4576 32 42.3117 31.9328 42.214 31.8166C42.1161 31.7005 42.0762 31.5477 42.1056 31.4L46.9701 6.9169C47.0173 6.68022 47.2292 6.50922 47.476 6.50922H57.96C61.2551 6.50922 63.7075 7.38439 65.2492 9.11071C66.7989 10.8459 67.2773 13.2717 66.6715 16.3205C66.4246 17.5626 66.0006 18.7161 65.4107 19.7488C64.8202 20.7827 64.0397 21.7394 63.0906 22.5927C61.9545 23.6328 60.6687 24.387 59.2723 24.8308C57.898 25.2688 56.1331 25.4908 54.0266 25.4908H49.7811L48.5693 31.5922C48.5221 31.829 48.3102 32 48.0634 32H42.6113Z" fill="white"/>
</svg>
