<svg width="15" height="11" viewBox="0 0 15 11" fill="none" xmlns="http://www.w3.org/2000/svg">
<path d="M8.91217 2.41758C8.91217 3.19754 8.27989 3.82982 7.49993 3.82982V4.83515C8.83512 4.83515 9.9175 3.75277 9.9175 2.41758H8.91217ZM7.49993 3.82982C6.71997 3.82982 6.08768 3.19754 6.08768 2.41758H5.08235C5.08235 3.75277 6.16474 4.83515 7.49993 4.83515V3.82982ZM6.08768 2.41758C6.08768 1.63762 6.71997 1.00533 7.49993 1.00533V0C6.16474 0 5.08235 1.08239 5.08235 2.41758H6.08768ZM7.49993 1.00533C8.27989 1.00533 8.91217 1.63762 8.91217 2.41758H9.9175C9.9175 1.08239 8.83512 0 7.49993 0V1.00533ZM5.58502 6.75006H9.41484V5.74473H5.58502V6.75006ZM9.41484 9.57454H5.58502V10.5799H9.41484V9.57454ZM5.58502 9.57454C4.80506 9.57454 4.17278 8.94226 4.17278 8.1623H3.16744C3.16744 9.49749 4.24983 10.5799 5.58502 10.5799V9.57454ZM10.8271 8.1623C10.8271 8.94226 10.1948 9.57454 9.41484 9.57454V10.5799C10.75 10.5799 11.8324 9.49749 11.8324 8.1623H10.8271ZM9.41484 6.75006C10.1948 6.75006 10.8271 7.38234 10.8271 8.1623H11.8324C11.8324 6.82711 10.75 5.74473 9.41484 5.74473V6.75006ZM5.58502 5.74473C4.24983 5.74473 3.16744 6.82711 3.16744 8.1623H4.17278C4.17278 7.38234 4.80506 6.75006 5.58502 6.75006V5.74473Z" fill="#6A737C"/>
<path d="M4.78864 4.10177C4.68796 3.94003 4.49905 3.85369 4.30854 3.85369C3.51536 3.85369 2.87236 3.21069 2.87236 2.41751C2.87236 1.62432 3.51536 0.981324 4.30854 0.981324C4.49905 0.981324 4.68796 0.894979 4.78864 0.733245C4.79309 0.726092 4.79757 0.718958 4.80208 0.711843C4.9697 0.447261 4.88477 0.072636 4.57344 0.0383609C4.48646 0.0287849 4.39808 0.0238693 4.30854 0.0238693C2.98658 0.0238693 1.91491 1.09554 1.91491 2.41751C1.91491 3.73947 2.98658 4.81114 4.30854 4.81114C4.39808 4.81114 4.48646 4.80623 4.57344 4.79665C4.88477 4.76237 4.9697 4.38775 4.80208 4.12317C4.79757 4.11605 4.79309 4.10892 4.78864 4.10177Z" fill="#6A737C"/>
<path d="M2.84574 9.16237C2.77328 9.04148 2.64538 8.96011 2.50444 8.96011H2.39364C1.60045 8.96011 0.957454 8.31711 0.957454 7.52393C0.957454 6.73075 1.60045 6.08775 2.39364 6.08775H2.50444C2.64538 6.08775 2.77328 6.00638 2.84574 5.88549C3.02261 5.5904 2.83067 5.13029 2.48663 5.13029H2.39364C1.07167 5.13029 0 6.20196 0 7.52393C0 8.8459 1.07167 9.91757 2.39364 9.91757H2.48663C2.83067 9.91757 3.02261 9.45746 2.84574 9.16237Z" fill="#6A737C"/>
<path d="M10.198 4.12317C10.0304 4.38775 10.1153 4.76237 10.4267 4.79665C10.5137 4.80623 10.602 4.81114 10.6916 4.81114C12.0135 4.81114 13.0852 3.73947 13.0852 2.41751C13.0852 1.09554 12.0135 0.0238693 10.6916 0.0238693C10.602 0.0238693 10.5137 0.0287849 10.4267 0.038361C10.1153 0.0726362 10.0304 0.44726 10.198 0.711842C10.2025 0.718957 10.207 0.726091 10.2115 0.733243C10.3122 0.894977 10.5011 0.981324 10.6916 0.981324C11.4848 0.981324 12.1278 1.62432 12.1278 2.41751C12.1278 3.21069 11.4848 3.85369 10.6916 3.85369C10.5011 3.85369 10.3122 3.94003 10.2115 4.10177C10.207 4.10892 10.2025 4.11605 10.198 4.12317Z" fill="#6A737C"/>
<path d="M12.1544 9.16237C11.9775 9.45746 12.1694 9.91757 12.5135 9.91757H12.6065C13.9285 9.91757 15.0001 8.8459 15.0001 7.52393C15.0001 6.20196 13.9285 5.13029 12.6065 5.13029H12.5135C12.1694 5.13029 11.9775 5.5904 12.1544 5.88549C12.2268 6.00638 12.3547 6.08775 12.4957 6.08775H12.6065C13.3997 6.08775 14.0427 6.73075 14.0427 7.52393C14.0427 8.31711 13.3997 8.96011 12.6065 8.96011H12.4957C12.3547 8.96011 12.2268 9.04148 12.1544 9.16237Z" fill="#6A737C"/>
</svg>
