<svg width="40" height="31" viewBox="0 0 40 31" fill="none" xmlns="http://www.w3.org/2000/svg">
<path d="M8.70937 0.481355H15.3616V19.1254C15.3616 27.5283 11.3354 30.4607 4.90172 30.4607C3.32627 30.4607 1.31311 30.1981 0 29.7605L0.744041 24.3774C1.66313 24.6838 2.8448 24.9026 4.15767 24.9026C6.95863 24.9026 8.70937 23.6333 8.70937 19.0818V0.481355Z" fill="#1D2746"/>
<path d="M21.1373 23.1518C22.8879 24.0709 25.6889 24.99 28.5336 24.99C31.5972 24.99 33.2165 23.7209 33.2165 21.7514C33.2165 19.957 31.816 18.863 28.271 17.6375C23.3692 15.8868 20.1307 13.1734 20.1307 8.84074C20.1307 3.80765 24.3759 0 31.2908 0C34.6608 0 37.0678 0.656675 38.8185 1.48808L37.3304 6.82742C36.1925 6.25859 34.0479 5.42694 31.2034 5.42694C28.3149 5.42694 26.9143 6.78366 26.9143 8.27174C26.9143 10.1537 28.5336 10.9851 32.3851 12.4733C37.593 14.399 40.0001 17.1124 40.0001 21.3138C40.0001 26.2593 36.2363 30.4608 28.1398 30.4608C24.7697 30.4608 21.4435 29.5417 19.7806 28.6226L21.1373 23.1518Z" fill="#1D2746"/>
</svg>
